<svg width="33" height="32" viewBox="0 0 33 32" fill="none" xmlns="http://www.w3.org/2000/svg">
<path d="M16.5 17C15.9477 17 15.5 16.5523 15.5 16C15.5 15.4477 15.9477 15 16.5 15C17.0523 15 17.5 15.4477 17.5 16C17.5 16.5523 17.0523 17 16.5 17Z" fill="#EAEFF3"/>
<path d="M16.5 16.0004L15.9283 16.3434C16.0488 16.5442 16.2659 16.6671 16.5 16.6671C16.7341 16.6671 16.9512 16.5442 17.0716 16.3434L16.5 16.0004ZM9.41017 5.47978L15.9283 16.3434L17.0716 15.6574L10.5535 4.79378L9.41017 5.47978ZM17.0716 16.3434L23.5899 5.47979L22.4465 4.79379L15.9283 15.6574L17.0716 16.3434ZM16.5 28C9.87258 28 4.5 22.6275 4.5 16H3.16666C3.16666 23.3638 9.1362 29.3334 16.5 29.3334V28ZM4.5 16C4.5 9.37261 9.87258 4.00002 16.5 4.00002V2.66669C9.1362 2.66669 3.16666 8.63622 3.16666 16H4.5ZM16.5 4.00002C23.1275 4.00002 28.5 9.37261 28.5 16H29.8333C29.8333 8.63622 23.8637 2.66669 16.5 2.66669V4.00002ZM28.5 16C28.5 22.6275 23.1275 28 16.5 28V29.3334C23.8637 29.3334 29.8333 23.3638 29.8333 16H28.5ZM16.5 22.5718C12.8181 22.5718 9.83333 19.5871 9.83333 15.9051H8.5C8.5 20.3234 12.0817 23.9051 16.5 23.9051V22.5718ZM23.1667 15.9051C23.1667 19.5871 20.1819 22.5718 16.5 22.5718V23.9051C20.9183 23.9051 24.5 20.3234 24.5 15.9051H23.1667ZM19.93 10.1872C21.8707 11.3542 23.1667 13.4787 23.1667 15.9051H24.5C24.5 12.9916 22.9421 10.4426 20.6171 9.04457L19.93 10.1872ZM9.83333 15.9051C9.83333 13.4787 11.1293 11.3542 13.07 10.1872L12.3829 9.04457C10.0579 10.4426 8.5 12.9916 8.5 15.9051H9.83333ZM16.5 16.3334C16.3159 16.3334 16.1667 16.1842 16.1667 16H14.8333C14.8333 16.9206 15.5795 17.6667 16.5 17.6667V16.3334ZM16.1667 16C16.1667 15.8159 16.3159 15.6667 16.5 15.6667V14.3334C15.5795 14.3334 14.8333 15.0795 14.8333 16H16.1667ZM16.5 15.6667C16.6841 15.6667 16.8333 15.8159 16.8333 16H18.1667C18.1667 15.0795 17.4205 14.3334 16.5 14.3334V15.6667ZM16.8333 16C16.8333 16.1842 16.6841 16.3334 16.5 16.3334V17.6667C17.4205 17.6667 18.1667 16.9206 18.1667 16H16.8333Z" fill="#EAEFF3"/>
</svg>
